<svg xmlns="http://www.w3.org/2000/svg" viewBox="0 0 32 32" width="32" height="32">
  <!-- Shield background with pulsing glow -->
  <path d="M16 2 L6 6 L6 14 C6 22 16 30 16 30 C16 30 26 22 26 14 L26 6 Z" 
        fill="#2E7D32" stroke="#1B5E20" stroke-width="1">
    <animate attributeName="opacity" 
             values="1;0.7;1" 
             dur="2s" 
             repeatCount="indefinite"/>
  </path>
  
  <!-- Glow effect -->
  <path d="M16 2 L6 6 L6 14 C6 22 16 30 16 30 C16 30 26 22 26 14 L26 6 Z" 
        fill="none" stroke="#81C784" stroke-width="2" opacity="0.5">
    <animate attributeName="opacity" 
             values="0;0.8;0" 
             dur="2s" 
             repeatCount="indefinite"/>
    <animate attributeName="stroke-width" 
             values="2;4;2" 
             dur="2s" 
             repeatCount="indefinite"/>
  </path>
  
  <!-- Leaf -->
  <path d="M16 10 C16 10 12 12 12 16 C12 18 13 19 14.5 19.5 C15 18 15.5 16 18 14 C17 11 16 10 16 10 Z" 
        fill="#81C784" stroke="#4CAF50" stroke-width="0.5"/>
  <path d="M14 15 Q16 13 17 14" fill="none" stroke="#4CAF50" stroke-width="0.5"/>
</svg>
